<svg width="8" height="14" viewBox="0 0 8 14" fill="none" xmlns="http://www.w3.org/2000/svg">
<path d="M-1.13728e-05 6.78516C0.00389488 6.61719 0.0351449 6.46484 0.0937386 6.32812C0.156239 6.1875 0.253895 6.05273 0.386707 5.92383L6.17577 0.298827C6.37499 0.0996085 6.61913 -8.75443e-07 6.90819 -8.75443e-07C7.10741 -8.75443e-07 7.2871 0.0468741 7.44725 0.140624C7.60741 0.234374 7.73632 0.361327 7.83397 0.521484C7.93163 0.68164 7.98046 0.859374 7.98046 1.05469C7.98046 1.34766 7.86718 1.60547 7.64061 1.82812L2.5078 6.7793L7.64061 11.7363C7.86718 11.9629 7.98046 12.2207 7.98046 12.5098C7.98046 12.709 7.93163 12.8887 7.83397 13.0488C7.73632 13.209 7.60741 13.3359 7.44725 13.4297C7.2871 13.5234 7.10741 13.5703 6.90819 13.5703C6.61913 13.5703 6.37499 13.4707 6.17577 13.2715L0.386707 7.64062C0.253895 7.51172 0.156239 7.37695 0.0937386 7.23633C0.0312386 7.0957 -1.13728e-05 6.94531 -1.13728e-05 6.78516Z" fill="#AAAEBA"/>
</svg>
