<svg width="13" height="13" viewBox="0 0 13 13" fill="none" xmlns="http://www.w3.org/2000/svg">
<path d="M0.316394 12.0938C0.187488 11.9648 0.10155 11.8125 0.0585815 11.6367C0.019519 11.4648 0.0214721 11.291 0.0644409 11.1152C0.10741 10.9434 0.189441 10.7969 0.310535 10.6758L4.77538 6.20508L0.310535 1.74023C0.189441 1.62305 0.10741 1.47851 0.0644409 1.30664C0.0214721 1.13086 0.0214721 0.955077 0.0644409 0.779296C0.10741 0.603515 0.191394 0.451171 0.316394 0.322265C0.4453 0.193359 0.597644 0.107421 0.773425 0.0644523C0.953113 0.0214835 1.12889 0.0214835 1.30077 0.0644523C1.47264 0.107421 1.61913 0.189452 1.74022 0.310546L6.20507 4.77539L10.6699 0.316405C10.7949 0.187499 10.9433 0.103515 11.1152 0.0644523C11.2871 0.0214835 11.459 0.0234367 11.6308 0.0703117C11.8066 0.11328 11.959 0.199218 12.0879 0.328124C12.2168 0.45703 12.3027 0.607421 12.3457 0.779296C12.3926 0.951171 12.3945 1.125 12.3516 1.30078C12.3086 1.47266 12.2246 1.62109 12.0996 1.74609L7.64061 6.20508L12.0996 10.6699C12.2246 10.7949 12.3066 10.9434 12.3457 11.1152C12.3887 11.2871 12.3887 11.459 12.3457 11.6309C12.3027 11.8066 12.2168 11.9609 12.0879 12.0938C11.959 12.2227 11.8066 12.3086 11.6308 12.3516C11.459 12.3945 11.2871 12.3945 11.1152 12.3516C10.9433 12.3125 10.7949 12.2305 10.6699 12.1055L6.20507 7.64062L1.74022 12.1055C1.61913 12.2266 1.47264 12.3086 1.30077 12.3516C1.12889 12.3945 0.955066 12.3945 0.779285 12.3516C0.603503 12.3086 0.449207 12.2227 0.316394 12.0938Z" fill="#AAAEBA"/>
</svg>
