<svg width="32" height="32" viewBox="0 0 32 32" fill="none" xmlns="http://www.w3.org/2000/svg">
<rect width="32" height="32" rx="16" fill="#F6F7FA"/>
<path d="M13.7617 21.084C13.625 21.084 13.5137 21.043 13.4277 20.9609C13.3457 20.8789 13.3027 20.7715 13.2988 20.6387L13.0586 12.5527C13.0547 12.4199 13.0957 12.3125 13.1816 12.2305C13.2676 12.1445 13.3809 12.1016 13.5215 12.1016C13.6543 12.1016 13.7637 12.1426 13.8496 12.2246C13.9355 12.3066 13.9805 12.4121 13.9844 12.541L14.2246 20.6328C14.2285 20.7656 14.1875 20.873 14.1016 20.9551C14.0156 21.041 13.9023 21.084 13.7617 21.084ZM16.0059 21.084C15.8652 21.084 15.75 21.041 15.6602 20.9551C15.5742 20.873 15.5312 20.7676 15.5312 20.6387V12.5469C15.5312 12.4141 15.5742 12.3066 15.6602 12.2246C15.75 12.1426 15.8652 12.1016 16.0059 12.1016C16.1465 12.1016 16.2598 12.1426 16.3457 12.2246C16.4316 12.3066 16.4746 12.4141 16.4746 12.5469V20.6387C16.4746 20.7676 16.4316 20.873 16.3457 20.9551C16.2598 21.041 16.1465 21.084 16.0059 21.084ZM18.2441 21.084C18.0996 21.084 17.9863 21.043 17.9043 20.9609C17.8223 20.8789 17.7832 20.7695 17.7871 20.6328L18.0215 12.5469C18.0254 12.4141 18.0703 12.3086 18.1562 12.2305C18.2422 12.1484 18.3535 12.1074 18.4902 12.1074C18.627 12.1074 18.7363 12.1484 18.8184 12.2305C18.9043 12.3125 18.9453 12.4199 18.9414 12.5527L18.707 20.6445C18.7031 20.7773 18.6582 20.8828 18.5723 20.9609C18.4863 21.043 18.377 21.084 18.2441 21.084ZM12.6367 10.0273V8.39258C12.6367 7.8418 12.8027 7.41016 13.1348 7.09766C13.4707 6.78516 13.9395 6.62891 14.541 6.62891H17.4531C18.0508 6.62891 18.5176 6.78516 18.8535 7.09766C19.1895 7.41016 19.3574 7.8418 19.3574 8.39258V10.0273H18.1387V8.45117C18.1387 8.23633 18.0703 8.06641 17.9336 7.94141C17.7969 7.8125 17.6113 7.74805 17.377 7.74805H14.6172C14.3828 7.74805 14.1973 7.8125 14.0605 7.94141C13.9238 8.06641 13.8555 8.23633 13.8555 8.45117V10.0273H12.6367ZM9.20312 10.7363C9.04297 10.7363 8.9043 10.6797 8.78711 10.5664C8.67383 10.4531 8.61719 10.3145 8.61719 10.1504C8.61719 9.99023 8.67383 9.85352 8.78711 9.74023C8.9043 9.62305 9.04297 9.56445 9.20312 9.56445H22.7969C22.9609 9.56445 23.0996 9.62109 23.2129 9.73438C23.3262 9.84766 23.3828 9.98633 23.3828 10.1504C23.3828 10.3145 23.3262 10.4531 23.2129 10.5664C23.1035 10.6797 22.9648 10.7363 22.7969 10.7363H9.20312ZM12.5547 23.5684C12.1836 23.5684 11.8594 23.4961 11.582 23.3516C11.3086 23.207 11.0918 23.002 10.9316 22.7363C10.7754 22.4707 10.6895 22.1562 10.6738 21.793L10.1289 10.6016H11.3359L11.875 21.5996C11.8867 21.834 11.9668 22.0254 12.1152 22.1738C12.2676 22.3223 12.4531 22.3965 12.6719 22.3965H19.3223C19.5488 22.3965 19.7363 22.3223 19.8848 22.1738C20.0332 22.0254 20.1133 21.834 20.125 21.5996L20.6406 10.5957H21.877L21.3379 21.7871C21.3184 22.1504 21.2285 22.4648 21.0684 22.7305C20.9082 23 20.6895 23.207 20.4121 23.3516C20.1387 23.4961 19.8223 23.5684 19.4629 23.5684H12.5547Z" fill="#FF7A7C"/>
</svg>
