<svg width="40" height="40" viewBox="0 0 40 40" fill="none" xmlns="http://www.w3.org/2000/svg">
<rect width="40" height="40" rx="20" fill="#F6F7FA"/>
<path d="M19.0809 21.152L16 15L21.4196 19.2796C22.1901 19.888 22.1941 21.0472 21.4277 21.6607C20.6614 22.2743 19.5189 22.0266 19.0809 21.152Z" stroke="#AAAEBA" stroke-width="1.5" stroke-linecap="round" stroke-linejoin="round"/>
<path d="M13 12.8199C11.1486 14.6389 10 17.1737 10 19.9774C10 25.5127 14.4772 30 20 30C25.5228 30 30 25.5127 30 19.9774C30 15.1241 26.5581 11.0764 21.9872 10.1527C21.1512 9.9838 20.7332 9.89933 20.3666 10.2001C20 10.5008 20 10.987 20 11.9594V12.9616" stroke="#AAAEBA" stroke-width="1.5" stroke-linecap="round" stroke-linejoin="round"/>
</svg>
