<svg width="40" height="40" viewBox="0 0 40 40" fill="none" xmlns="http://www.w3.org/2000/svg">
<rect width="40" height="40" rx="20" fill="#111111"/>
<path d="M10 17C10 13.7002 10 12.0503 11.0251 11.0251C12.0503 10 13.7002 10 17 10H19C22.2998 10 23.9497 10 24.9749 11.0251C26 12.0503 26 13.7002 26 17V19C26 22.2998 26 23.9497 24.9749 24.9749C23.9497 26 22.2998 26 19 26H17C13.7002 26 12.0503 26 11.0251 24.9749C10 23.9497 10 22.2998 10 19V17Z" stroke="white" stroke-width="1.5"/>
<path d="M26.2383 15C27.5732 15.0814 28.4232 15.3047 29.036 15.9174C30 16.8814 30 18.433 30 21.5363V23.4171C30 26.5203 30 28.0719 29.036 29.036C28.0719 30 26.5203 30 23.4171 30H21.5363C18.433 30 16.8814 30 15.9174 29.036C15.3047 28.4232 15.0814 27.5732 15 26.2383" stroke="white" stroke-width="1.5" stroke-linecap="round"/>
<path d="M19 20V14C19.2222 14.4 19.4 16.08 21 16.4M19 20C19 21.1046 18.1046 22 17 22C15.8954 22 15 21.1046 15 20C15 18.8954 15.8954 18 17 18C18.1046 18 19 18.8954 19 20Z" stroke="white" stroke-width="1.5" stroke-linecap="round" stroke-linejoin="round"/>
</svg>
