<svg width="22" height="22" viewBox="0 0 22 22" fill="none" xmlns="http://www.w3.org/2000/svg">
<path d="M10.75 0C16.6871 0 21.5 4.81294 21.5 10.75C21.5 16.6871 16.6871 21.5 10.75 21.5C4.81294 21.5 0 16.6871 0 10.75C0 4.81294 4.81294 0 10.75 0ZM10.75 5.75C10.1977 5.75 9.75 6.19772 9.75 6.75V10.75C9.75 11.0152 9.85543 11.2695 10.043 11.457L12.043 13.457C12.4335 13.8476 13.0665 13.8476 13.457 13.457C13.8476 13.0665 13.8476 12.4335 13.457 12.043L11.75 10.3359V6.75C11.75 6.19772 11.3023 5.75 10.75 5.75Z" fill="#AAAEBA"/>
</svg>
