<svg width="22" height="22" viewBox="0 0 22 22" fill="none" xmlns="http://www.w3.org/2000/svg">
<path d="M10.7506 0C11.6165 7.05958e-05 12.3904 0.277143 13.2262 0.746094C14.036 1.20056 14.9645 1.87111 16.1314 2.71484L17.6402 3.80664C18.5767 4.4837 19.3251 5.02388 19.8892 5.52441C20.4718 6.04128 20.9077 6.55694 21.1842 7.20508C21.4612 7.85462 21.528 8.52047 21.4908 9.28809C21.4549 10.0289 21.3174 10.9226 21.1461 12.0371L20.8306 14.0889C20.5873 15.6725 20.3936 16.9336 20.109 17.916C19.8146 18.932 19.4 19.7389 18.6588 20.3555C17.9207 20.9693 17.0414 21.2426 15.9674 21.373C14.9224 21.5 13.604 21.5 11.939 21.5H9.56112C7.89652 21.5 6.57859 21.4999 5.53377 21.373C4.45962 21.2426 3.57956 20.9694 2.84139 20.3555C2.10016 19.7389 1.68558 18.9319 1.3912 17.916C1.10653 16.9336 0.912863 15.6725 0.669516 14.0889L0.354086 12.0371C0.182808 10.9226 0.0452245 10.0289 0.00935991 9.28809C-0.0278042 8.52046 0.0399335 7.85463 0.316977 7.20508C0.593423 6.55704 1.02844 6.04122 1.61092 5.52441C2.17507 5.02388 2.92351 4.4837 3.85995 3.80664L5.36873 2.71484C6.53568 1.87108 7.46412 1.20058 8.27401 0.746094C9.10988 0.277033 9.8845 0 10.7506 0ZM10.7506 12.75C10.1983 12.75 9.75057 13.1977 9.75057 13.75V16.75C9.75057 17.3023 10.1983 17.75 10.7506 17.75C11.3027 17.7498 11.7506 17.3022 11.7506 16.75V13.75C11.7506 13.1978 11.3027 12.7502 10.7506 12.75Z" fill="#AAAEBA"/>
</svg>
