<svg width="19" height="18" viewBox="0 0 19 18" fill="none" xmlns="http://www.w3.org/2000/svg">
<path d="M-0.000133514 5.76416C-0.000133514 4.91943 0.136585 4.14551 0.410023 3.44238C0.68346 2.73438 1.06432 2.12402 1.5526 1.61133C2.04088 1.09375 2.61217 0.695801 3.26647 0.41748C3.92076 0.13916 4.62877 0 5.39049 0C5.98131 0 6.53063 0.090332 7.03844 0.270996C7.55114 0.446777 8.00768 0.695801 8.40807 1.01807C8.81334 1.34033 9.1527 1.71387 9.42614 2.13867C9.70446 1.71387 10.0463 1.34033 10.4515 1.01807C10.8568 0.690918 11.3133 0.439453 11.8212 0.263672C12.329 0.0878906 12.8783 0 13.4691 0C14.2308 0 14.9388 0.13916 15.5931 0.41748C16.2474 0.695801 16.8187 1.09375 17.307 1.61133C17.8002 2.12402 18.181 2.73438 18.4496 3.44238C18.723 4.14551 18.8597 4.91943 18.8597 5.76416C18.8597 6.76514 18.6547 7.75879 18.2445 8.74512C17.8392 9.73145 17.2557 10.7007 16.494 11.6528C15.7372 12.605 14.829 13.5352 13.7694 14.4434C12.7098 15.3516 11.5282 16.2305 10.2245 17.0801C10.0926 17.1631 9.95348 17.2363 9.807 17.2998C9.66539 17.3682 9.53844 17.4023 9.42614 17.4023C9.31871 17.4023 9.19176 17.3682 9.04528 17.2998C8.89879 17.2363 8.76451 17.1631 8.64244 17.0801C7.33385 16.2305 6.14977 15.3516 5.0902 14.4434C4.03063 13.5352 3.11998 12.605 2.35826 11.6528C1.60143 10.7007 1.01793 9.73145 0.607777 8.74512C0.202503 7.75879 -0.000133514 6.76514 -0.000133514 5.76416ZM1.65514 5.75684C1.65514 6.60645 1.85778 7.46582 2.26305 8.33496C2.66832 9.2041 3.22252 10.0635 3.92565 10.9131C4.63366 11.7578 5.4442 12.5732 6.35729 13.3594C7.27526 14.1455 8.2445 14.8804 9.265 15.564C9.34801 15.6226 9.40172 15.6519 9.42614 15.6519C9.45055 15.6519 9.5067 15.6226 9.59459 15.564C10.6151 14.8804 11.5819 14.1455 12.495 13.3594C13.413 12.5732 14.2235 11.7578 14.9266 10.9131C15.6346 10.0635 16.1888 9.2041 16.5892 8.33496C16.9945 7.46582 17.1971 6.60645 17.1971 5.75684C17.1971 4.93652 17.0311 4.21875 16.6991 3.60352C16.3719 2.9834 15.9203 2.5 15.3441 2.15332C14.7679 1.80176 14.1161 1.62598 13.3885 1.62598C12.8172 1.62598 12.3216 1.72852 11.9017 1.93359C11.4867 2.13867 11.1278 2.39502 10.8251 2.70264C10.5272 3.01025 10.2709 3.3252 10.056 3.64746C9.92907 3.81836 9.82164 3.94043 9.73375 4.01367C9.64586 4.08203 9.54332 4.11621 9.42614 4.11621C9.31383 4.11621 9.21129 4.08203 9.11852 4.01367C9.02575 3.94043 8.92321 3.81836 8.8109 3.64746C8.60094 3.32031 8.34459 3.00293 8.04186 2.69531C7.74401 2.3877 7.38268 2.13379 6.95787 1.93359C6.53795 1.72852 6.04235 1.62598 5.47106 1.62598C4.73864 1.62598 4.08678 1.80176 3.51549 2.15332C2.9442 2.5 2.4901 2.9834 2.15319 3.60352C1.82116 4.21875 1.65514 4.93652 1.65514 5.75684Z" fill="#BFBFBF" style="mix-blend-mode:plus-lighter"/>
</svg>
