<svg width="18" height="18" viewBox="0 0 18 18" fill="none" xmlns="http://www.w3.org/2000/svg">
<path d="M5.24994 10.125C5.24994 9.71079 4.91415 9.375 4.49994 9.375C4.08573 9.375 3.74994 9.71079 3.74994 10.125H4.49994H5.24994ZM7.99283 9.58066L7.30026 9.86849L7.30026 9.86849L7.99283 9.58066ZM7.86816 11.2591L8.46508 11.7132L8.46508 11.7132L7.86816 11.2591ZM14.3787 12.932L14.909 13.4623V13.4623L14.3787 12.932ZM15.4393 11.8713L14.909 11.341V11.341L15.4393 11.8713ZM16.4999 10.5087L17.2499 10.5173V10.5173L16.4999 10.5087ZM16.2742 9.96357L15.75 10.5L15.75 10.5L16.2742 9.96357ZM12.9897 14.0787L13.2767 14.7716L13.2767 14.7716L12.9897 14.0787ZM13.4999 9C13.0857 9 12.7499 9.33579 12.7499 9.75C12.7499 10.1642 13.0857 10.5 13.4999 10.5V9.75V9ZM6.37494 12V11.25C5.75362 11.25 5.24994 10.7463 5.24994 10.125H4.49994H3.74994C3.74994 11.5747 4.92519 12.75 6.37494 12.75V12ZM4.87494 14.25V13.5C3.42519 13.5 2.24994 12.3247 2.24994 10.875H1.49994H0.749939C0.749939 13.1532 2.59676 15 4.87494 15V14.25ZM1.49994 10.875H2.24994C2.24994 9.42525 3.42519 8.25 4.87494 8.25V7.5V6.75C2.59676 6.75 0.749939 8.59683 0.749939 10.875H1.49994ZM4.87494 14.25V15H11.1967L11.1967 14.25V13.5H4.87494V14.25ZM4.87494 7.5V8.25C5.96686 8.25 6.90477 8.91688 7.30026 9.86849L7.99283 9.58066L8.6854 9.29282C8.06546 7.80116 6.59383 6.75 4.87494 6.75V7.5ZM7.86816 11.2591L7.27124 10.8051C7.06449 11.0769 6.74007 11.25 6.37494 11.25V12V12.75C7.22844 12.75 7.98688 12.3419 8.46508 11.7132L7.86816 11.2591ZM7.99283 9.58066L7.30026 9.86849C7.4627 10.2593 7.41877 10.6111 7.27124 10.8051L7.86816 11.2591L8.46508 11.7132C9.03745 10.9608 8.9793 9.99999 8.6854 9.29282L7.99283 9.58066ZM14.3787 12.932L14.909 13.4623L15.9697 12.4017L15.4393 11.8713L14.909 11.341L13.8483 12.4017L14.3787 12.932ZM15.4393 11.8713L15.9697 12.4017C16.3105 12.0608 16.6062 11.7663 16.8114 11.5172C16.9998 11.2885 17.2449 10.9483 17.2499 10.5173L16.4999 10.5087L15.75 10.5C15.7514 10.3746 15.8186 10.3634 15.6537 10.5634C15.5057 10.7431 15.2729 10.9771 14.909 11.341L15.4393 11.8713ZM14.5606 9.75V10.5C15.0752 10.5 15.4054 10.5008 15.6371 10.5232C15.8951 10.5481 15.8397 10.5877 15.75 10.5L16.2742 9.96357L16.7983 9.42715C16.49 9.12592 16.0762 9.05865 15.7813 9.03017C15.46 8.99915 15.0427 9 14.5606 9V9.75ZM16.4999 10.5087L17.2499 10.5173C17.2546 10.1075 17.0915 9.71359 16.7983 9.42715L16.2742 9.96357L15.75 10.5V10.5L16.4999 10.5087ZM11.1967 14.25L11.1967 15C12.0552 15 12.6934 15.0133 13.2767 14.7716L12.9897 14.0787L12.7027 13.3858C12.4591 13.4867 12.1776 13.5 11.1967 13.5V14.25ZM14.3787 12.932L13.8483 12.4017C13.1547 13.0952 12.9463 13.2849 12.7027 13.3858L12.9897 14.0787L13.2767 14.7716C13.8601 14.53 14.302 14.0694 14.909 13.4623L14.3787 12.932ZM14.5606 9.75V9H13.4999V9.75V10.5H14.5606V9.75Z" fill="#77C97E"/>
<path d="M7.87494 11.25L12.8407 7.86997C12.9809 7.76573 13.106 7.64267 13.2122 7.50457C13.5755 7.03196 13.5683 6.37646 13.338 5.82812C12.8256 4.60798 11.6096 3.75 10.1911 3.75C9.4909 3.75 8.84 3.9591 8.29873 4.31764L2.99994 8.06307" stroke="#77C97E" stroke-width="1.5" stroke-linecap="round" stroke-linejoin="round"/>
</svg>
