<svg width="20" height="22" viewBox="0 0 20 22" fill="none" xmlns="http://www.w3.org/2000/svg">
<path d="M9.66065 21.0938C8.5962 21.0938 7.58057 20.9302 6.61377 20.603C5.64698 20.2808 4.76075 19.8218 3.95508 19.2261C3.1543 18.6353 2.45606 17.937 1.86036 17.1313C1.26954 16.3306 0.810551 15.4468 0.483402 14.48C0.161137 13.5132 3.8147e-06 12.4976 3.8147e-06 11.4331C3.8147e-06 10.2563 0.195316 9.14307 0.585941 8.09326C0.981449 7.04346 1.53077 6.09619 2.23389 5.25146C2.9419 4.40674 3.76709 3.70117 4.70948 3.13477C5.65674 2.56348 6.68213 2.17285 7.78565 1.96289V0.637207C7.78565 0.427246 7.83204 0.268555 7.92481 0.161133C8.01758 0.0537109 8.13721 0.00244141 8.2837 0.00732422C8.43018 0.00732422 8.58643 0.065918 8.75245 0.183105L11.7554 2.33643C11.9556 2.47803 12.0557 2.64404 12.0557 2.83447C12.0557 3.0249 11.9556 3.19092 11.7554 3.33252L8.74512 5.48584C8.58399 5.60303 8.43018 5.66162 8.2837 5.66162C8.13721 5.66162 8.01758 5.61035 7.92481 5.50781C7.83204 5.40039 7.78565 5.2417 7.78565 5.03174V3.67676C6.91162 3.88672 6.10352 4.23096 5.36133 4.70947C4.61914 5.18311 3.97217 5.76416 3.42041 6.45264C2.86866 7.13623 2.43897 7.90039 2.13135 8.74512C1.82862 9.58984 1.67725 10.4858 1.67725 11.4331C1.67725 12.3169 1.81153 13.1567 2.08008 13.9526C2.34864 14.7485 2.72705 15.481 3.21534 16.1499C3.70362 16.814 4.27979 17.3901 4.94385 17.8784C5.6128 18.3667 6.34522 18.7451 7.14112 19.0137C7.93702 19.2822 8.77686 19.4165 9.66065 19.4165C10.5444 19.4165 11.3843 19.2822 12.1802 19.0137C12.981 18.7451 13.7134 18.3667 14.3774 17.8784C15.0415 17.3901 15.6177 16.814 16.106 16.1499C16.5991 15.481 16.9775 14.7485 17.2412 13.9526C17.5098 13.1567 17.644 12.3169 17.644 11.4331C17.644 10.5444 17.5073 9.70215 17.2339 8.90625C16.9653 8.11035 16.5845 7.38281 16.0913 6.72363C15.5981 6.06445 15.0195 5.49561 14.3555 5.01709C14.1602 4.85107 14.0381 4.6582 13.9893 4.43848C13.9404 4.21875 13.9844 4.00635 14.1211 3.80127C14.2529 3.61572 14.4409 3.5083 14.6851 3.479C14.9292 3.44482 15.1587 3.51562 15.3735 3.69141C16.1792 4.28223 16.8774 4.97803 17.4683 5.77881C18.0591 6.57959 18.5156 7.4585 18.8379 8.41553C19.165 9.37256 19.3286 10.3784 19.3286 11.4331C19.3286 12.4976 19.165 13.5132 18.8379 14.48C18.5107 15.4468 18.0518 16.3306 17.4609 17.1313C16.8701 17.937 16.1719 18.6353 15.3662 19.2261C14.5606 19.8218 13.6743 20.2808 12.7075 20.603C11.7456 20.9302 10.73 21.0938 9.66065 21.0938Z" fill="#AAAEBA"/>
</svg>
