<svg width="20" height="22" viewBox="0 0 20 22" fill="none" xmlns="http://www.w3.org/2000/svg">
<path d="M9.66076 21.0938C8.5963 21.0938 7.58068 20.9302 6.61388 20.603C5.64708 20.2808 4.76085 19.8218 3.95519 19.2261C3.15441 18.6353 2.45617 17.937 1.86046 17.1313C1.26964 16.3306 0.810658 15.4468 0.483509 14.48C0.161243 13.5132 0.000110626 12.4976 0.000110626 11.4331C0.000110626 10.2563 0.195423 9.14307 0.586048 8.09326C0.981556 7.04346 1.53087 6.09619 2.234 5.25146C2.94201 4.40674 3.7672 3.70117 4.70958 3.13477C5.65685 2.56348 6.68224 2.17285 7.78576 1.96289V0.637207C7.78576 0.427246 7.83214 0.268555 7.92492 0.161133C8.01769 0.0537109 8.13732 0.00244141 8.2838 0.00732422C8.43029 0.00732422 8.58654 0.065918 8.75255 0.183105L11.7555 2.33643C11.9557 2.47803 12.0558 2.64404 12.0558 2.83447C12.0558 3.0249 11.9557 3.19092 11.7555 3.33252L8.74523 5.48584C8.5841 5.60303 8.43029 5.66162 8.2838 5.66162C8.13732 5.66162 8.01769 5.61035 7.92492 5.50781C7.83214 5.40039 7.78576 5.2417 7.78576 5.03174V3.67676C6.91173 3.88672 6.10363 4.23096 5.36144 4.70947C4.61925 5.18311 3.97228 5.76416 3.42052 6.45264C2.86876 7.13623 2.43908 7.90039 2.13146 8.74512C1.82872 9.58984 1.67736 10.4858 1.67736 11.4331C1.67736 12.3169 1.81163 13.1567 2.08019 13.9526C2.34874 14.7485 2.72716 15.481 3.21544 16.1499C3.70372 16.814 4.2799 17.3901 4.94396 17.8784C5.6129 18.3667 6.34533 18.7451 7.14122 19.0137C7.93712 19.2822 8.77697 19.4165 9.66076 19.4165C10.5445 19.4165 11.3844 19.2822 12.1803 19.0137C12.9811 18.7451 13.7135 18.3667 14.3776 17.8784C15.0416 17.3901 15.6178 16.814 16.1061 16.1499C16.5992 15.481 16.9776 14.7485 17.2413 13.9526C17.5099 13.1567 17.6442 12.3169 17.6442 11.4331C17.6442 10.5444 17.5074 9.70215 17.234 8.90625C16.9654 8.11035 16.5846 7.38281 16.0914 6.72363C15.5983 6.06445 15.0196 5.49561 14.3556 5.01709C14.1603 4.85107 14.0382 4.6582 13.9894 4.43848C13.9405 4.21875 13.9845 4.00635 14.1212 3.80127C14.253 3.61572 14.441 3.5083 14.6852 3.479C14.9293 3.44482 15.1588 3.51562 15.3736 3.69141C16.1793 4.28223 16.8776 4.97803 17.4684 5.77881C18.0592 6.57959 18.5157 7.4585 18.838 8.41553C19.1651 9.37256 19.3287 10.3784 19.3287 11.4331C19.3287 12.4976 19.1651 13.5132 18.838 14.48C18.5109 15.4468 18.0519 16.3306 17.461 17.1313C16.8702 17.937 16.172 18.6353 15.3663 19.2261C14.5607 19.8218 13.6744 20.2808 12.7076 20.603C11.7457 20.9302 10.7301 21.0938 9.66076 21.0938Z" fill="#AAAEBA"/>
</svg>
