<svg width="18" height="17" viewBox="0 0 18 17" fill="none" xmlns="http://www.w3.org/2000/svg">
<path d="M1.93358 12.2314C1.29393 12.2314 0.810535 12.0679 0.483387 11.7407C0.161121 11.4087 -1.14441e-05 10.9033 -1.14441e-05 10.2246V6.51123C-1.14441e-05 5.8374 0.161121 5.33203 0.483387 4.99512C0.805653 4.6582 1.28905 4.48975 1.93358 4.48975H4.66552C4.76317 4.48975 4.8413 4.46289 4.89989 4.40918L9.13329 0.622559C9.36766 0.41748 9.57518 0.263672 9.75585 0.161133C9.93651 0.0537109 10.1367 0 10.3564 0C10.6836 0 10.9521 0.112305 11.1621 0.336914C11.3721 0.561523 11.477 0.834961 11.477 1.15723V15.5786C11.477 15.896 11.3721 16.1621 11.1621 16.377C10.957 16.5918 10.6933 16.6992 10.3711 16.6992C10.1465 16.6992 9.93651 16.6479 9.7412 16.5454C9.55077 16.4478 9.34813 16.3013 9.13329 16.106L4.89989 12.3267C4.83641 12.2632 4.75829 12.2314 4.66552 12.2314H1.93358ZM2.06542 10.7812H5.01708C5.1538 10.7812 5.27343 10.7983 5.37597 10.8325C5.48339 10.8667 5.59081 10.9326 5.69823 11.0303L9.62401 14.5679C9.65331 14.6021 9.68016 14.624 9.70458 14.6338C9.73388 14.6484 9.76317 14.6558 9.79247 14.6558C9.88036 14.6558 9.9243 14.6045 9.9243 14.502V2.18262C9.9243 2.08496 9.88036 2.03613 9.79247 2.03613C9.75829 2.03613 9.72655 2.0459 9.69725 2.06543C9.67284 2.08008 9.64598 2.09961 9.61669 2.12402L5.69823 5.70557C5.58593 5.80322 5.4785 5.86914 5.37597 5.90332C5.27343 5.9375 5.1538 5.95459 5.01708 5.95459H2.06542C1.88964 5.95459 1.76024 5.99609 1.67723 6.0791C1.59911 6.15723 1.56005 6.28418 1.56005 6.45996V10.2686C1.56005 10.4443 1.59911 10.5737 1.67723 10.6567C1.76024 10.7397 1.88964 10.7812 2.06542 10.7812ZM14.8096 12.4805C14.6142 12.3486 14.4995 12.1729 14.4653 11.9531C14.436 11.7285 14.4995 11.5015 14.6558 11.272C14.9341 10.8667 15.1489 10.4175 15.3003 9.92432C15.4516 9.43115 15.5273 8.90625 15.5273 8.34961C15.5273 7.79297 15.4516 7.26562 15.3003 6.76758C15.1538 6.26953 14.939 5.82031 14.6558 5.41992C14.4995 5.19531 14.436 4.97314 14.4653 4.75342C14.4995 4.52881 14.6142 4.35059 14.8096 4.21875C14.9853 4.10156 15.1733 4.0625 15.3735 4.10156C15.5786 4.13574 15.7446 4.24072 15.8716 4.4165C16.2475 4.91943 16.543 5.5127 16.7578 6.19629C16.9775 6.875 17.0874 7.59277 17.0874 8.34961C17.0874 9.10156 16.9775 9.81934 16.7578 10.5029C16.543 11.1816 16.2475 11.7725 15.8716 12.2754C15.7446 12.4561 15.5786 12.5659 15.3735 12.605C15.1733 12.6392 14.9853 12.5977 14.8096 12.4805Z" fill="#AAAEBA"/>
</svg>
