<svg width="22" height="24" viewBox="0 0 22 24" fill="none" xmlns="http://www.w3.org/2000/svg">
<path d="M10.9487 23.9062C9.74235 23.9062 8.59131 23.7209 7.49561 23.3501C6.3999 22.9849 5.39551 22.4647 4.48242 21.7896C3.57487 21.12 2.78353 20.3286 2.1084 19.4155C1.4388 18.508 0.91862 17.5063 0.547852 16.4106C0.182617 15.3149 0 14.1639 0 12.9575C0 11.6239 0.221354 10.3621 0.664062 9.17236C1.1123 7.98258 1.73486 6.90902 2.53174 5.95166C3.33415 4.9943 4.26937 4.19466 5.3374 3.55273C6.41097 2.90527 7.57308 2.46257 8.82373 2.22461V0.722168C8.82373 0.484212 8.8763 0.304362 8.98145 0.182617C9.08659 0.0608724 9.22217 0.00276693 9.38818 0.00830078C9.5542 0.00830078 9.73128 0.074707 9.91943 0.20752L13.3228 2.64795C13.5496 2.80843 13.6631 2.99658 13.6631 3.2124C13.6631 3.42822 13.5496 3.61637 13.3228 3.77686L9.91113 6.21729C9.72852 6.3501 9.5542 6.4165 9.38818 6.4165C9.22217 6.4165 9.08659 6.3584 8.98145 6.24219C8.8763 6.12044 8.82373 5.94059 8.82373 5.70264V4.16699C7.83317 4.40495 6.91732 4.79508 6.07617 5.3374C5.23503 5.87419 4.50179 6.53271 3.87646 7.31299C3.25114 8.08773 2.76416 8.95378 2.41553 9.91113C2.07243 10.8685 1.90088 11.884 1.90088 12.9575C1.90088 13.9591 2.05306 14.911 2.35742 15.813C2.66178 16.715 3.09066 17.5451 3.64404 18.3032C4.19743 19.0558 4.85042 19.7088 5.60303 20.2622C6.36117 20.8156 7.19124 21.2445 8.09326 21.5488C8.99528 21.8532 9.9471 22.0054 10.9487 22.0054C11.9504 22.0054 12.9022 21.8532 13.8042 21.5488C14.7118 21.2445 15.5418 20.8156 16.2944 20.2622C17.047 19.7088 17.7 19.0558 18.2534 18.3032C18.8123 17.5451 19.2412 16.715 19.54 15.813C19.8444 14.911 19.9966 13.9591 19.9966 12.9575C19.9966 11.9504 19.8416 10.9958 19.5317 10.0938C19.2274 9.19173 18.7957 8.36719 18.2368 7.62012C17.6779 6.87305 17.0221 6.22835 16.2695 5.68604C16.0482 5.49788 15.9098 5.2793 15.8545 5.03027C15.7992 4.78125 15.849 4.54053 16.0039 4.30811C16.1533 4.09782 16.3664 3.97607 16.6431 3.94287C16.9198 3.90413 17.1799 3.98438 17.4233 4.18359C18.3364 4.85319 19.1278 5.64176 19.7974 6.54932C20.467 7.45687 20.9844 8.45296 21.3496 9.5376C21.7204 10.6222 21.9058 11.7622 21.9058 12.9575C21.9058 14.1639 21.7204 15.3149 21.3496 16.4106C20.9788 17.5063 20.4587 18.508 19.7891 19.4155C19.1195 20.3286 18.3281 21.12 17.415 21.7896C16.502 22.4647 15.4976 22.9849 14.4019 23.3501C13.3117 23.7209 12.1606 23.9062 10.9487 23.9062ZM8.12646 17.2822C7.89958 17.2822 7.72249 17.2103 7.59521 17.0664C7.46794 16.9225 7.4043 16.7371 7.4043 16.5103V10.4424H7.37939L6.30029 11.2476C6.24495 11.2918 6.18685 11.325 6.12598 11.3472C6.07064 11.3693 6.007 11.3804 5.93506 11.3804C5.78564 11.3804 5.66113 11.3306 5.56152 11.231C5.46745 11.1313 5.42041 11.0041 5.42041 10.8491C5.42041 10.7218 5.44808 10.6139 5.50342 10.5254C5.56429 10.4368 5.64453 10.3538 5.74414 10.2764L6.98096 9.36328C7.14697 9.24154 7.30745 9.14193 7.4624 9.06445C7.62288 8.98145 7.80827 8.93994 8.01855 8.93994C8.27311 8.93994 8.4751 9.01188 8.62451 9.15576C8.77946 9.29964 8.85693 9.49886 8.85693 9.75342V16.5103C8.85693 16.7371 8.79053 16.9225 8.65771 17.0664C8.53044 17.2103 8.35335 17.2822 8.12646 17.2822ZM13.3062 17.3486C12.9741 17.3486 12.6421 17.2905 12.3101 17.1743C11.9836 17.0526 11.693 16.8783 11.4385 16.6514C11.1895 16.4245 11.0151 16.1533 10.9155 15.8379C10.8768 15.766 10.8436 15.6885 10.8159 15.6055C10.7938 15.5225 10.7827 15.4395 10.7827 15.3564C10.7827 15.1738 10.8353 15.0272 10.9404 14.9165C11.0511 14.8058 11.195 14.7505 11.3721 14.7505C11.6488 14.7505 11.859 14.9027 12.0029 15.207C12.1025 15.4837 12.263 15.7161 12.4844 15.9043C12.7057 16.0924 12.9797 16.1865 13.3062 16.1865C13.5884 16.1865 13.8263 16.109 14.02 15.9541C14.2137 15.7992 14.3604 15.5944 14.46 15.3398C14.5651 15.0853 14.6177 14.8058 14.6177 14.5015C14.6177 14.0754 14.507 13.6963 14.2856 13.3643C14.0698 13.0322 13.7489 12.8662 13.3228 12.8662C13.0959 12.8662 12.8883 12.9215 12.7002 13.0322C12.5176 13.1374 12.3626 13.2785 12.2354 13.4556C12.1302 13.5773 12.0306 13.6714 11.9365 13.7378C11.8424 13.7987 11.7124 13.8291 11.5464 13.8291C11.325 13.8291 11.1562 13.7544 11.04 13.605C10.9238 13.45 10.874 13.2563 10.8906 13.0239L11.123 9.88623C11.1562 9.33838 11.4274 9.06445 11.9365 9.06445H15.0659C15.2375 9.06445 15.3758 9.11702 15.481 9.22217C15.5861 9.32731 15.6387 9.46842 15.6387 9.64551C15.6387 9.81706 15.5861 9.95817 15.481 10.0688C15.3758 10.174 15.2375 10.2266 15.0659 10.2266H12.3184L12.1191 12.7085H12.1523C12.3073 12.4263 12.5286 12.2077 12.8164 12.0527C13.1042 11.8923 13.4251 11.812 13.7793 11.812C14.2497 11.812 14.6509 11.9338 14.9829 12.1772C15.3149 12.4207 15.5695 12.7445 15.7466 13.1484C15.9237 13.5469 16.0122 13.984 16.0122 14.46C16.0122 15.0189 15.9015 15.5169 15.6802 15.9541C15.4644 16.3857 15.1545 16.7261 14.7505 16.9751C14.3465 17.2241 13.8651 17.3486 13.3062 17.3486Z" fill="#BFBFBF" style="mix-blend-mode:plus-lighter"/>
</svg>
