<svg width="17" height="22" viewBox="0 0 17 22" fill="none" xmlns="http://www.w3.org/2000/svg">
<path d="M2.98815 21.3647C2.0067 21.3647 1.26207 21.1157 0.754261 20.6177C0.251331 20.1196 -0.000133514 19.3823 -0.000133514 18.4058V9.08203C-0.000133514 8.11035 0.251331 7.37305 0.754261 6.87012C1.26207 6.36719 2.0067 6.11572 2.98815 6.11572H5.97643V7.7417H3.08336C2.60485 7.7417 2.24108 7.86621 1.99205 8.11523C1.74303 8.35938 1.61852 8.72559 1.61852 9.21387V18.2666C1.61852 18.7598 1.74303 19.1309 1.99205 19.3799C2.24108 19.6289 2.60485 19.7534 3.08336 19.7534H13.7767C14.2455 19.7534 14.6068 19.6289 14.8607 19.3799C15.1195 19.1309 15.2489 18.7598 15.2489 18.2666V9.21387C15.2489 8.72559 15.1195 8.35938 14.8607 8.11523C14.6068 7.86621 14.2455 7.7417 13.7767 7.7417H10.8837V6.11572H13.8793C14.8607 6.11572 15.6029 6.36719 16.1058 6.87012C16.6088 7.37305 16.8602 8.11035 16.8602 9.08203V18.4058C16.8602 19.3774 16.6088 20.1123 16.1058 20.6104C15.6029 21.1133 14.8607 21.3647 13.8793 21.3647H2.98815ZM8.43004 13.8501C8.22008 13.8501 8.03942 13.7769 7.88805 13.6304C7.73668 13.479 7.661 13.3008 7.661 13.0957V3.42041L7.72692 2.02881L7.18493 2.66602L5.70543 4.21143C5.56871 4.36279 5.39537 4.43848 5.18541 4.43848C4.99987 4.43848 4.84118 4.37744 4.70934 4.25537C4.5775 4.12842 4.51159 3.96729 4.51159 3.77197C4.51159 3.67432 4.52868 3.58643 4.56285 3.5083C4.60192 3.43018 4.65563 3.35449 4.72399 3.28125L7.85143 0.256348C7.94909 0.158691 8.0443 0.0927734 8.13707 0.0585938C8.23473 0.0195312 8.33239 0 8.43004 0C8.53258 0 8.63024 0.0195312 8.72301 0.0585938C8.81578 0.0927734 8.911 0.158691 9.00866 0.256348L12.1361 3.28125C12.2045 3.35449 12.2582 3.43018 12.2972 3.5083C12.3363 3.58643 12.3558 3.67432 12.3558 3.77197C12.3558 3.96729 12.2875 4.12842 12.1507 4.25537C12.014 4.37744 11.8505 4.43848 11.66 4.43848C11.4549 4.43848 11.284 4.36279 11.1473 4.21143L9.67516 2.66602L9.13317 2.03613L9.19909 3.42041V13.0957C9.19909 13.3008 9.1234 13.479 8.97203 13.6304C8.82555 13.7769 8.64489 13.8501 8.43004 13.8501Z" fill="#BFBFBF" style="mix-blend-mode:plus-lighter"/>
</svg>
