<svg width="23" height="26" viewBox="0 0 23 26" fill="none" xmlns="http://www.w3.org/2000/svg">
<path d="M2.28882e-05 23.5547V2.27344C2.28882e-05 1.50781 0.195335 0.9375 0.58596 0.5625C0.984398 0.1875 1.45705 0 2.00393 0C2.47268 0 2.94534 0.132812 3.4219 0.398438L21.2344 10.8516C21.8203 11.1953 22.2422 11.5195 22.5 11.8242C22.7578 12.1211 22.8867 12.4844 22.8867 12.9141C22.8867 13.3359 22.7578 13.6992 22.5 14.0039C22.2422 14.3086 21.8203 14.6289 21.2344 14.9648L3.4219 25.418C2.94534 25.6914 2.47268 25.8281 2.00393 25.8281C1.45705 25.8281 0.984398 25.6406 0.58596 25.2656C0.195335 24.8906 2.28882e-05 24.3203 2.28882e-05 23.5547Z" fill="#BFBFBF" style="mix-blend-mode:plus-lighter"/>
</svg>
